<svg xmlns="http://www.w3.org/2000/svg" viewBox="0 0 800 600" width="800" height="600">
  <defs>
    <linearGradient id="harvest" x1="0" y1="0" x2="0" y2="1">
      <stop offset="0" stop-color="#bcd8e8" />
      <stop offset="0.42" stop-color="#f0e3b8" />
      <stop offset="1" stop-color="#c99a3e" />
    </linearGradient>
  </defs>
  <rect width="800" height="600" fill="url(#harvest)" />
  <circle cx="150" cy="120" r="46" fill="#fff7dd" opacity="0.85" />
  <g fill="#d9b463">
    <path d="M0 300h800v40H0z" opacity="0.5" />
    <path d="M0 356h800v52H0z" opacity="0.6" />
    <path d="M0 424h800v64H0z" opacity="0.75" />
    <path d="M0 504h800v96H0z" opacity="0.9" />
  </g>
  <g stroke="#8c6320" stroke-width="3" stroke-linecap="round" opacity="0.55">
    <path d="M60 560v-70M110 570v-84M170 556v-64M230 574v-90M300 560v-72M370 572v-86M440 556v-66M510 574v-92M580 558v-70M650 570v-84M720 556v-64" />
  </g>
</svg>
